<?xml version="1.0" encoding="UTF-8" standalone="no"?>
<!-- Created with Inkscape (http://www.inkscape.org/) -->

<svg
   xmlns:dc="http://purl.org/dc/elements/1.1/"
   xmlns:cc="http://creativecommons.org/ns#"
   xmlns:rdf="http://www.w3.org/1999/02/22-rdf-syntax-ns#"
   xmlns:svg="http://www.w3.org/2000/svg"
   xmlns="http://www.w3.org/2000/svg"
   xmlns:sodipodi="http://sodipodi.sourceforge.net/DTD/sodipodi-0.dtd"
   xmlns:inkscape="http://www.inkscape.org/namespaces/inkscape"
   width="128"
   height="128"
   id="svg2985"
   version="1.1"
   inkscape:version="0.48.2 r9819"
   sodipodi:docname="icon.svg"
   inkscape:export-filename="/Users/tanema/workspace/quick_todo/images/icon16.png"
   inkscape:export-xdpi="11.274141"
   inkscape:export-ydpi="11.274141">
  <defs
     id="defs2987" />
  <sodipodi:namedview
     id="base"
     pagecolor="#ffffff"
     bordercolor="#666666"
     borderopacity="1.0"
     inkscape:pageopacity="0.0"
     inkscape:pageshadow="2"
     inkscape:zoom="2.8284271"
     inkscape:cx="77.304825"
     inkscape:cy="66.006457"
     inkscape:current-layer="layer1"
     showgrid="true"
     inkscape:grid-bbox="true"
     inkscape:document-units="px"
     inkscape:window-width="1440"
     inkscape:window-height="852"
     inkscape:window-x="0"
     inkscape:window-y="0"
     inkscape:window-maximized="1" />
  <metadata
     id="metadata2990">
    <rdf:RDF>
      <cc:Work
         rdf:about="">
        <dc:format>image/svg+xml</dc:format>
        <dc:type
           rdf:resource="http://purl.org/dc/dcmitype/StillImage" />
        <dc:title></dc:title>
      </cc:Work>
    </rdf:RDF>
  </metadata>
  <g
     id="layer1"
     inkscape:label="Layer 1"
     inkscape:groupmode="layer"
     transform="translate(0,80)">
    <path
       sodipodi:type="arc"
       style="fill:#999999;fill-opacity:1"
       id="path2995"
       sodipodi:cx="67.351921"
       sodipodi:cy="64.890717"
       sodipodi:rx="39.421204"
       sodipodi:ry="38.360542"
       d="m 106.77312,64.890717 a 39.421204,38.360542 0 1 1 -5.8e-4,-0.208999"
       transform="matrix(1.6176607,0,0,1.6648085,-44.918337,-123.97201)"
       sodipodi:start="0"
       sodipodi:end="6.277737"
       sodipodi:open="true" />
    <path
       sodipodi:type="arc"
       style="fill:#ffffff;fill-opacity:1"
       id="path2997"
       sodipodi:cx="65.937706"
       sodipodi:cy="62.769398"
       sodipodi:rx="38.006989"
       sodipodi:ry="36.592777"
       d="m 103.94469,62.769398 c 0,20.209633 -17.016304,36.592777 -38.006984,36.592777 -20.99068,0 -38.006989,-16.383144 -38.006989,-36.592777 0,-20.209633 17.016309,-36.592778 38.006989,-36.592778 20.909858,0 37.892504,16.26189 38.006424,36.39341"
       transform="matrix(1.5069767,0,0,1.5942029,-35.019875,-115.70676)"
       sodipodi:start="0"
       sodipodi:end="6.277737"
       sodipodi:open="true" />
    <rect
       style="fill:#ff7f2a;fill-opacity:1"
       id="rect3767"
       width="27.577164"
       height="72.478447"
       x="23.34341"
       y="-105.9231"
       transform="matrix(0.70710678,0.70710678,-0.70710678,0.70710678,0,0)" />
    <rect
       style="fill:#ffdc2f;fill-opacity:1"
       id="rect3767-0"
       width="27.577164"
       height="72.478447"
       x="15.918787"
       y="-105.74632"
       transform="matrix(0.70710678,0.70710678,-0.70710678,0.70710678,0,0)" />
    <rect
       style="fill:#fcff2f;fill-opacity:1"
       id="rect3767-0-2"
       width="15.909902"
       height="72.478447"
       x="15.21168"
       y="-106.09987"
       transform="matrix(0.70710678,0.70710678,-0.70710678,0.70710678,0,0)" />
    <path
       style="fill:#333333;stroke:none"
       d="M 30.052039,3.6290493 25.102291,20.776386 47.199378,15.296311 z"
       id="path3815"
       inkscape:connector-curvature="0" />
    <path
       style="fill:#ffb380;stroke:none"
       d="m 34.825009,-12.98796 -6.363961,22.2738633 5.303301,0.707107 0,5.4800777 4.772971,0.353553 -2.474874,2.474875 23.688078,-6.187186 z"
       id="path3811"
       inkscape:connector-curvature="0"
       sodipodi:nodetypes="cccccccc" />
    <path
       style="fill:#ffccaa;stroke:none"
       d="m 35.178563,-10.513087 -5.126524,18.5615533 6.540737,0.707107 9.899495,-8.30850395 z"
       id="path3813"
       inkscape:connector-curvature="0" />
    <path
       style="fill:#b3b3b3;fill-opacity:0.17333332;stroke:none"
       d="M 120.875,55.125 C 109.125,47.965147 90.25,45.110825 84.5,46.75 78.719872,48.397764 67.125,53.125 63,56.625 59.396943,59.68214 54.403907,64.779002 50.875,71.5 c -3.806664,7.25 -8.753525,21.471611 -9.125,28.125 -0.581177,10.4093 0.949244,19.60151 6.75,21 5.664633,1.36567 23.5,2.25 23.5,2.25 l 18.375,-6 c 4.636348,-2.59096 9.194771,-5.41569 13.5,-9 l 10.75,-14.125 c 8.47273,-13.910308 7.18564,-26.077792 6.625,-38.375"
       id="path3049"
       inkscape:connector-curvature="0"
       transform="translate(0,-80)"
       sodipodi:nodetypes="csssssccccc" />
  </g>
</svg>
